<svg version="1.1" xmlns="http://www.w3.org/2000/svg" viewBox="-283.647998046875 -1628.0320693969727 6301.450186863814 2464.512075805664"><desc>Created with Snap</desc><defs></defs><g><g transform="matrix(20.5797,0,0,20.5797,3755.5339,-1423.7304)"><g><path d="M78.4,66.5c-5.5,4.8-9.9,15.2-9.9,15.2s-6.9-11.4-12.9-15.3c-9.5-6.1-13.6-6.2-13.6-6.2V65c0,0,7.8,1.2,11.7,4.6   c8.2,7.1,14.8,18.5,14.8,18.5S74.4,75,80.1,70.5C88.1,64.3,95,65,95,65v-4.8C95,60.1,85.1,60.7,78.4,66.5z" fill="#143d59" style=""></path><path d="M42,80c-6.4-3.6-17.8-4.3-17.8-4.3s8.7-10.1,10.5-17C37.5,47.9,36.2,44,36.2,44l-4.6,1.6c0,0,1.3,7.7-0.6,12.4   c-4.1,9.9-13,19.8-13,19.8s14.6,1.3,20.7,5.1c8.6,5.4,10.2,12,10.2,12l4.6-1.6C53.5,93.4,49.7,84.4,42,80z" fill="#143d59" style=""></path><path d="M35.3,36.8c11.3-0.9,14.6-3.4,14.6-3.4l-3-3.8c0,0-6.9,3.7-12.1,3.4c-10.9-0.6-23.3-5.6-23.3-5.6s3.5,14,1.8,20.9   C10.9,58.2,5,61.8,5,61.8l3,3.8c0,0,7.5-6.5,9.1-15.1c1.3-7.1-1.7-18-1.7-18S28,37.4,35.3,36.8z" fill="#143d59" style=""></path><path d="M37.4,17.8c7.3-1.1,16.7-7.4,16.7-7.4s-0.6,13.2,2.4,19.8c4.6,10.2,8,12.5,8,12.5l2.7-4c0,0-5.9-5.2-7.3-10.2   C56.9,18.2,57.7,5,57.7,5s-12.3,7.8-19.5,8.5c-10.2,1-15.6-3.3-15.6-3.3l-2.7,4.1C19.9,14.2,28.6,19.1,37.4,17.8z" fill="#143d59" style=""></path><path d="M65,60.5c0,0,3.1-7.2,7.4-10.1c9-6.1,21.9-9.7,21.9-9.7s-11.5-8.9-14.5-15.4c-4.2-9.1-1.9-15.6-1.9-15.6l-4.8-1.2   c0,0-1.9,9.6,2.2,17.4c3.4,6.4,12.5,13.2,12.5,13.2S75,42.9,69.6,47.8c-8.3,7.6-9.4,11.5-9.4,11.5L65,60.5z" fill="#143d59" style=""></path></g><desc>Created with Snap</desc><defs></defs></g><g><g transform="matrix(1.024,0,0,-1.024,0,0)"><path d="M210 720Q176 720 150 694Q125 669 125 634Q125 606 138 578Q152 551 183 516L284 398Q327 348 350 311Q374 275 383 241Q393 208 393 167Q393 118 368 78Q343 38 301 14Q259 -10 208 -10Q171 -10 148 -3Q125 4 111 11Q98 18 88 18Q78 18 69 12Q60 7 58 0L23 0L23 212L57 212Q71 132 107 86Q143 41 191 41Q233 41 257 69Q282 97 282 145Q282 184 263 223Q244 263 202 311L118 408Q66 469 45 511Q24 554 24 602Q24 644 49 680Q74 716 114 738Q155 760 201 760Q239 760 255 766Q271 772 279 788L313 788L357 607L323 598Q304 648 288 674Q272 700 254 710Q237 720 210 720ZM892 34L911 34L911 0L892 0Q816 0 781 34Q747 69 747 143Q747 190 725 224Q704 258 675 258L651 258L651 295L760 470Q770 486 756 496Q743 506 713 506L713 540L880 540L880 506Q852 506 836 497Q821 488 805 462L700 294Q767 289 808 248Q849 207 849 144Q849 98 861 66Q874 34 892 34ZM441 0L441 37Q473 37 487 47Q501 57 501 80L501 460Q501 483 487 493Q473 503 441 503L441 540L671 540L671 503Q639 503 625 493Q611 483 611 460L611 80Q611 57 625 47Q639 37 671 37L671 0L441 0ZM923 0L923 37Q955 37 969 47Q983 57 983 80L983 460Q983 483 969 493Q955 503 923 503L923 540L1153 540L1153 503Q1121 503 1107 493Q1093 483 1093 460L1093 80Q1093 57 1107 47Q1121 37 1153 37L1153 0L923 0ZM1430 720Q1391 720 1362 689Q1334 658 1334 614L1334 126Q1334 82 1353 56Q1373 30 1407 30Q1442 30 1462 56Q1483 83 1483 126L1483 323Q1483 376 1412 376L1412 413L1620 413L1620 376Q1590 376 1590 341L1590 0L1567 0L1539 37Q1494 -10 1406 -10Q1222 -10 1222 204L1222 546Q1222 650 1273 705Q1324 760 1421 760Q1459 760 1475 766Q1491 772 1499 788L1533 788L1577 607L1543 598Q1524 648 1508 674Q1492 700 1474 710Q1457 720 1430 720ZM2056 460L2056 204Q2056 -10 1889 -10Q1803 -10 1753 47Q1704 104 1704 204L1704 460Q1704 483 1690 493Q1676 503 1644 503L1644 540L1874 540L1874 503Q1842 503 1828 493Q1814 483 1814 460L1814 136Q1814 90 1840 61Q1867 32 1910 32Q1956 32 1984 76Q2013 120 2013 189L2013 460Q2013 484 2000 493Q1987 503 1953 503L1953 540L2116 540L2116 503Q2082 503 2069 493Q2056 484 2056 460ZM2244 145L2223 81Q2216 61 2232 49Q2249 37 2283 37L2283 0L2116 0L2116 37Q2143 37 2157 47Q2171 57 2178 81L2328 544L2376 544L2532 79Q2541 53 2552 45Q2563 37 2594 37L2594 0L2364 0L2364 37Q2438 37 2425 78L2404 145L2244 145ZM2326 393L2257 183L2392 183L2326 393ZM2610 0L2610 37Q2642 37 2656 47Q2670 57 2670 80L2670 460Q2670 483 2656 493Q2642 503 2610 503L2610 540L2846 540Q2937 540 2980 497Q3024 455 3024 367Q3024 281 2980 239Q2937 198 2846 198L2820 198L2820 235L2846 235Q2879 235 2899 262Q2919 289 2919 333L2919 404Q2919 448 2899 474Q2879 501 2846 501L2780 501L2780 80Q2780 57 2794 47Q2808 37 2840 37L2840 0L2610 0ZM3276 555Q3368 555 3418 499Q3468 443 3468 341L3468 199Q3468 -15 3276 -15Q3182 -15 3132 40Q3082 95 3082 199L3082 341Q3082 447 3131 501Q3181 555 3276 555ZM3276 24Q3312 24 3335 50Q3358 77 3358 119L3358 420Q3358 462 3335 489Q3312 516 3276 516Q3241 516 3217 488Q3194 461 3194 420L3194 119Q3194 76 3216 50Q3239 24 3276 24Z" fill="#143d59" style=""></path></g></g></g></svg>